<svg xmlns="http://www.w3.org/2000/svg" xmlns:xlink="http://www.w3.org/1999/xlink" width="1200" zoomAndPan="magnify" viewBox="0 0 900 899.99999" height="1200" preserveAspectRatio="xMidYMid meet" version="1.0"><defs><clipPath id="87d4d27586"><path d="M 40 40 L 280 40 L 280 280 L 40 280 Z M 40 40 " clip-rule="nonzero"/></clipPath><clipPath id="5be05d78d0"><path d="M 54.25 40 L 265.75 40 C 273.621094 40 280 46.378906 280 54.25 L 280 265.75 C 280 273.621094 273.621094 280 265.75 280 L 54.25 280 C 46.378906 280 40 273.621094 40 265.75 L 40 54.25 C 40 46.378906 46.378906 40 54.25 40 Z M 54.25 40 " clip-rule="nonzero"/></clipPath><clipPath id="4ec5bbe86b"><path d="M 0 0 L 240 0 L 240 240 L 0 240 Z M 0 0 " clip-rule="nonzero"/></clipPath><clipPath id="6b226bc5ec"><path d="M 14.25 0 L 225.75 0 C 233.621094 0 240 6.378906 240 14.25 L 240 225.75 C 240 233.621094 233.621094 240 225.75 240 L 14.25 240 C 6.378906 240 0 233.621094 0 225.75 L 0 14.25 C 0 6.378906 6.378906 0 14.25 0 Z M 14.25 0 " clip-rule="nonzero"/></clipPath><clipPath id="2ceca4a143"><rect x="0" width="240" y="0" height="240"/></clipPath><clipPath id="a842027d55"><path d="M 310 40 L 861 40 L 861 280 L 310 280 Z M 310 40 " clip-rule="nonzero"/></clipPath><clipPath id="ff527fdc04"><path d="M 324.25 40 L 846.382812 40 C 854.253906 40 860.632812 46.378906 860.632812 54.25 L 860.632812 265.75 C 860.632812 273.621094 854.253906 280 846.382812 280 L 324.25 280 C 316.378906 280 310 273.621094 310 265.75 L 310 54.25 C 310 46.378906 316.378906 40 324.25 40 Z M 324.25 40 " clip-rule="nonzero"/></clipPath><clipPath id="7791f23c21"><path d="M 0 0 L 550.640625 0 L 550.640625 240 L 0 240 Z M 0 0 " clip-rule="nonzero"/></clipPath><clipPath id="e1796425a1"><path d="M 14.25 0 L 536.382812 0 C 544.253906 0 550.632812 6.378906 550.632812 14.25 L 550.632812 225.75 C 550.632812 233.621094 544.253906 240 536.382812 240 L 14.25 240 C 6.378906 240 0 233.621094 0 225.75 L 0 14.25 C 0 6.378906 6.378906 0 14.25 0 Z M 14.25 0 " clip-rule="nonzero"/></clipPath><clipPath id="461c0d16a2"><rect x="0" width="551" y="0" height="240"/></clipPath><clipPath id="e9d8ecab93"><path d="M 40 310 L 280 310 L 280 861 L 40 861 Z M 40 310 " clip-rule="nonzero"/></clipPath><clipPath id="f34f6f9c6c"><path d="M 54.25 310 L 265.75 310 C 273.621094 310 280 316.378906 280 324.25 L 280 846.382812 C 280 854.253906 273.621094 860.632812 265.75 860.632812 L 54.25 860.632812 C 46.378906 860.632812 40 854.253906 40 846.382812 L 40 324.25 C 40 316.378906 46.378906 310 54.25 310 Z M 54.25 310 " clip-rule="nonzero"/></clipPath><clipPath id="8103a97363"><path d="M 0 0 L 240 0 L 240 550.640625 L 0 550.640625 Z M 0 0 " clip-rule="nonzero"/></clipPath><clipPath id="a76b5e34c3"><path d="M 14.25 0 L 225.75 0 C 233.621094 0 240 6.378906 240 14.25 L 240 536.382812 C 240 544.253906 233.621094 550.632812 225.75 550.632812 L 14.25 550.632812 C 6.378906 550.632812 0 544.253906 0 536.382812 L 0 14.25 C 0 6.378906 6.378906 0 14.25 0 Z M 14.25 0 " clip-rule="nonzero"/></clipPath><clipPath id="df21b086d8"><rect x="0" width="240" y="0" height="551"/></clipPath><clipPath id="dab37efe1e"><path d="M 313.226562 460 L 582 460 L 582 860.824219 L 313.226562 860.824219 Z M 313.226562 460 " clip-rule="nonzero"/></clipPath><clipPath id="77b1d7d070"><path d="M 452.1875 463.511719 L 580.789062 847.125 C 581.835938 850.25 581.316406 853.691406 579.390625 856.371094 C 577.464844 859.046875 574.367188 860.632812 571.066406 860.632812 L 324.25 860.632812 C 320.953125 860.632812 317.855469 859.046875 315.929688 856.371094 C 314 853.691406 313.480469 850.25 314.53125 847.125 L 443.128906 463.511719 C 443.78125 461.5625 445.605469 460.253906 447.660156 460.253906 C 449.710938 460.253906 451.535156 461.5625 452.1875 463.511719 Z M 452.1875 463.511719 " clip-rule="nonzero"/></clipPath><clipPath id="3298e7abc1"><path d="M 0.441406 0.078125 L 269 0.078125 L 269 400.640625 L 0.441406 400.640625 Z M 0.441406 0.078125 " clip-rule="nonzero"/></clipPath><clipPath id="5bab7438f6"><path d="M 139.1875 3.511719 L 267.789062 387.125 C 268.835938 390.25 268.316406 393.691406 266.390625 396.371094 C 264.464844 399.046875 261.367188 400.632812 258.066406 400.632812 L 11.25 400.632812 C 7.953125 400.632812 4.855469 399.046875 2.929688 396.371094 C 1 393.691406 0.480469 390.25 1.53125 387.125 L 130.128906 3.511719 C 130.78125 1.5625 132.605469 0.253906 134.660156 0.253906 C 136.710938 0.253906 138.535156 1.5625 139.1875 3.511719 Z M 139.1875 3.511719 " clip-rule="nonzero"/></clipPath><clipPath id="ece76660ff"><rect x="0" width="269" y="0" height="401"/></clipPath><clipPath id="9e48a53e1d"><path d="M 589 460 L 857 460 L 857 860.824219 L 589 860.824219 Z M 589 460 " clip-rule="nonzero"/></clipPath><clipPath id="584dfb3238"><path d="M 727.503906 463.511719 L 856.105469 847.125 C 857.152344 850.25 856.632812 853.691406 854.707031 856.371094 C 852.78125 859.046875 849.683594 860.632812 846.382812 860.632812 L 599.566406 860.632812 C 596.269531 860.632812 593.171875 859.046875 591.246094 856.371094 C 589.320312 853.691406 588.796875 850.25 589.847656 847.125 L 718.445312 463.511719 C 719.097656 461.5625 720.921875 460.253906 722.976562 460.253906 C 725.027344 460.253906 726.851562 461.5625 727.503906 463.511719 Z M 727.503906 463.511719 " clip-rule="nonzero"/></clipPath><clipPath id="7a2206b3ee"><path d="M 0 0.078125 L 268 0.078125 L 268 400.640625 L 0 400.640625 Z M 0 0.078125 " clip-rule="nonzero"/></clipPath><clipPath id="e78fd69412"><path d="M 138.503906 3.511719 L 267.105469 387.125 C 268.152344 390.25 267.632812 393.691406 265.707031 396.371094 C 263.78125 399.046875 260.683594 400.632812 257.382812 400.632812 L 10.566406 400.632812 C 7.269531 400.632812 4.171875 399.046875 2.246094 396.371094 C 0.320312 393.691406 -0.203125 390.25 0.847656 387.125 L 129.445312 3.511719 C 130.097656 1.5625 131.921875 0.253906 133.976562 0.253906 C 136.027344 0.253906 137.851562 1.5625 138.503906 3.511719 Z M 138.503906 3.511719 " clip-rule="nonzero"/></clipPath><clipPath id="79ef7741af"><rect x="0" width="268" y="0" height="401"/></clipPath><clipPath id="9dfa350f77"><path d="M 451.414062 370 L 719.21875 370 L 719.21875 801 L 451.414062 801 Z M 451.414062 370 " clip-rule="nonzero"/></clipPath><clipPath id="0c24f993f1"><path d="M 585.316406 800.632812 L 719.21875 370 L 451.414062 370 Z M 585.316406 800.632812 " clip-rule="nonzero"/></clipPath><clipPath id="28f88ea048"><path d="M 0.414062 0 L 268.21875 0 L 268.21875 430.640625 L 0.414062 430.640625 Z M 0.414062 0 " clip-rule="nonzero"/></clipPath><clipPath id="72f1680c44"><path d="M 134.316406 430.632812 L 268.21875 0 L 0.414062 0 Z M 134.316406 430.632812 " clip-rule="nonzero"/></clipPath><clipPath id="79dfea4cb6"><rect x="0" width="269" y="0" height="431"/></clipPath><clipPath id="cf50b6618d"><path d="M 451.414062 370.003906 L 719.164062 370.003906 L 719.164062 800.5 L 451.414062 800.5 Z M 451.414062 370.003906 " clip-rule="nonzero"/></clipPath><clipPath id="b7f455f616"><path d="M 585.3125 800.625 L 719.210938 370.003906 L 451.414062 370.003906 Z M 585.3125 800.625 " clip-rule="nonzero"/></clipPath></defs><rect x="-90" width="1080" fill="#ffffff" y="-89.999999" height="1079.999988" fill-opacity="1"/><rect x="-90" width="1080" fill="#ffffff" y="-89.999999" height="1079.999988" fill-opacity="1"/><g clip-path="url(#87d4d27586)"><g clip-path="url(#5be05d78d0)"><g transform="matrix(1, 0, 0, 1, 40, 40)"><g clip-path="url(#2ceca4a143)"><g clip-path="url(#4ec5bbe86b)"><g clip-path="url(#6b226bc5ec)"><rect x="-238" width="1296" fill="#ff6666" height="1295.999986" y="-237.999998" fill-opacity="1"/></g></g></g></g></g></g><g clip-path="url(#a842027d55)"><g clip-path="url(#ff527fdc04)"><g transform="matrix(1, 0, 0, 1, 310, 40)"><g clip-path="url(#461c0d16a2)"><g clip-path="url(#7791f23c21)"><g clip-path="url(#e1796425a1)"><path fill="#666666" d="M 0 0 L 550.3125 0 L 550.3125 240 L 0 240 Z M 0 0 " fill-opacity="1" fill-rule="nonzero"/></g></g></g></g></g></g><g clip-path="url(#e9d8ecab93)"><g clip-path="url(#f34f6f9c6c)"><g transform="matrix(1, 0, 0, 1, 40, 310)"><g clip-path="url(#df21b086d8)"><g clip-path="url(#8103a97363)"><g clip-path="url(#a76b5e34c3)"><path fill="#666666" d="M 0 0 L 240 0 L 240 550.3125 L 0 550.3125 Z M 0 0 " fill-opacity="1" fill-rule="nonzero"/></g></g></g></g></g></g><g clip-path="url(#dab37efe1e)"><g clip-path="url(#77b1d7d070)"><g transform="matrix(1, 0, 0, 1, 313, 460)"><g clip-path="url(#ece76660ff)"><g clip-path="url(#3298e7abc1)"><g clip-path="url(#5bab7438f6)"><path fill="#ff6666" d="M -3 -10 L 272.316406 -10 L 272.316406 400.824219 L -3 400.824219 Z M -3 -10 " fill-opacity="1" fill-rule="nonzero"/></g></g></g></g></g></g><g clip-path="url(#9e48a53e1d)"><g clip-path="url(#584dfb3238)"><g transform="matrix(1, 0, 0, 1, 589, 460)"><g clip-path="url(#79ef7741af)"><g clip-path="url(#7a2206b3ee)"><g clip-path="url(#e78fd69412)"><path fill="#ff6666" d="M -3.683594 -10 L 271.632812 -10 L 271.632812 400.824219 L -3.683594 400.824219 Z M -3.683594 -10 " fill-opacity="1" fill-rule="nonzero"/></g></g></g></g></g></g><g clip-path="url(#9dfa350f77)"><g clip-path="url(#0c24f993f1)"><g transform="matrix(1, 0, 0, 1, 451, 370)"><g clip-path="url(#79dfea4cb6)"><g clip-path="url(#28f88ea048)"><g clip-path="url(#72f1680c44)"><path fill="#ffffff" d="M 0.414062 0 L 268.21875 0 L 268.21875 431 L 0.414062 431 Z M 0.414062 0 " fill-opacity="1" fill-rule="nonzero"/></g></g></g></g></g></g><g clip-path="url(#cf50b6618d)"><g clip-path="url(#b7f455f616)"><path stroke-linecap="butt" transform="matrix(0.75, 0, 0, 0.75, 451.414781, 370.003565)" fill="none" stroke-linejoin="miter" d="M 178.530313 574.16198 L 357.061583 0.000454418 L -0.000958235 0.000454418 Z M 178.530313 574.16198 " stroke="#000000" stroke-width="8" stroke-opacity="1" stroke-miterlimit="4"/></g></g></svg>