<svg xmlns="http://www.w3.org/2000/svg" xmlns:xlink="http://www.w3.org/1999/xlink" width="1200" zoomAndPan="magnify" viewBox="0 0 900 470.999988" height="628" preserveAspectRatio="xMidYMid meet" version="1.0"><defs><g/><clipPath id="8ed1f9a760"><path d="M 1.125 1.0625 L 67.476562 1.0625 L 67.476562 67.414062 L 1.125 67.414062 Z M 1.125 1.0625 " clip-rule="nonzero"/></clipPath><clipPath id="03ecb5766b"><path d="M 8.625 1.0625 L 59.976562 1.0625 C 61.964844 1.0625 63.871094 1.851562 65.28125 3.257812 C 66.6875 4.664062 67.476562 6.574219 67.476562 8.5625 L 67.476562 59.914062 C 67.476562 61.902344 66.6875 63.808594 65.28125 65.21875 C 63.871094 66.625 61.964844 67.414062 59.976562 67.414062 L 8.625 67.414062 C 6.636719 67.414062 4.726562 66.625 3.320312 65.21875 C 1.914062 63.808594 1.125 61.902344 1.125 59.914062 L 1.125 8.5625 C 1.125 6.574219 1.914062 4.664062 3.320312 3.257812 C 4.726562 1.851562 6.636719 1.0625 8.625 1.0625 Z M 8.625 1.0625 " clip-rule="nonzero"/></clipPath><clipPath id="29f7bb2b69"><path d="M 0.125 0.0625 L 66.476562 0.0625 L 66.476562 66.414062 L 0.125 66.414062 Z M 0.125 0.0625 " clip-rule="nonzero"/></clipPath><clipPath id="96add907d9"><path d="M 7.625 0.0625 L 58.976562 0.0625 C 60.964844 0.0625 62.871094 0.851562 64.28125 2.257812 C 65.6875 3.664062 66.476562 5.574219 66.476562 7.5625 L 66.476562 58.914062 C 66.476562 60.902344 65.6875 62.808594 64.28125 64.21875 C 62.871094 65.625 60.964844 66.414062 58.976562 66.414062 L 7.625 66.414062 C 5.636719 66.414062 3.726562 65.625 2.320312 64.21875 C 0.914062 62.808594 0.125 60.902344 0.125 58.914062 L 0.125 7.5625 C 0.125 5.574219 0.914062 3.664062 2.320312 2.257812 C 3.726562 0.851562 5.636719 0.0625 7.625 0.0625 Z M 7.625 0.0625 " clip-rule="nonzero"/></clipPath><clipPath id="09e08afc6a"><rect x="0" width="67" y="0" height="67"/></clipPath><clipPath id="ece22348ed"><path d="M 75.769531 1.0625 L 228 1.0625 L 228 67.414062 L 75.769531 67.414062 Z M 75.769531 1.0625 " clip-rule="nonzero"/></clipPath><clipPath id="6a3204ef3e"><path d="M 83.269531 1.0625 L 220.5 1.0625 C 222.488281 1.0625 224.398438 1.851562 225.804688 3.257812 C 227.210938 4.664062 228 6.574219 228 8.5625 L 228 59.914062 C 228 61.902344 227.210938 63.808594 225.804688 65.21875 C 224.398438 66.625 222.488281 67.414062 220.5 67.414062 L 83.269531 67.414062 C 81.28125 67.414062 79.375 66.625 77.964844 65.21875 C 76.558594 63.808594 75.769531 61.902344 75.769531 59.914062 L 75.769531 8.5625 C 75.769531 6.574219 76.558594 4.664062 77.964844 3.257812 C 79.375 1.851562 81.28125 1.0625 83.269531 1.0625 Z M 83.269531 1.0625 " clip-rule="nonzero"/></clipPath><clipPath id="57f668d6b8"><path d="M 0.769531 0.0625 L 153 0.0625 L 153 66.414062 L 0.769531 66.414062 Z M 0.769531 0.0625 " clip-rule="nonzero"/></clipPath><clipPath id="ad8c48d027"><path d="M 8.269531 0.0625 L 145.5 0.0625 C 147.488281 0.0625 149.398438 0.851562 150.804688 2.257812 C 152.210938 3.664062 153 5.574219 153 7.5625 L 153 58.914062 C 153 60.902344 152.210938 62.808594 150.804688 64.21875 C 149.398438 65.625 147.488281 66.414062 145.5 66.414062 L 8.269531 66.414062 C 6.28125 66.414062 4.375 65.625 2.964844 64.21875 C 1.558594 62.808594 0.769531 60.902344 0.769531 58.914062 L 0.769531 7.5625 C 0.769531 5.574219 1.558594 3.664062 2.964844 2.257812 C 4.375 0.851562 6.28125 0.0625 8.269531 0.0625 Z M 8.269531 0.0625 " clip-rule="nonzero"/></clipPath><clipPath id="17cd573061"><rect x="0" width="153" y="0" height="67"/></clipPath><clipPath id="94f52fec6e"><path d="M 1.125 75.707031 L 67.476562 75.707031 L 67.476562 228 L 1.125 228 Z M 1.125 75.707031 " clip-rule="nonzero"/></clipPath><clipPath id="75bd7a8c6c"><path d="M 8.625 75.707031 L 59.976562 75.707031 C 61.964844 75.707031 63.871094 76.496094 65.28125 77.902344 C 66.6875 79.3125 67.476562 81.21875 67.476562 83.207031 L 67.476562 220.4375 C 67.476562 222.425781 66.6875 224.335938 65.28125 225.742188 C 63.871094 227.148438 61.964844 227.9375 59.976562 227.9375 L 8.625 227.9375 C 6.636719 227.9375 4.726562 227.148438 3.320312 225.742188 C 1.914062 224.335938 1.125 222.425781 1.125 220.4375 L 1.125 83.207031 C 1.125 81.21875 1.914062 79.3125 3.320312 77.902344 C 4.726562 76.496094 6.636719 75.707031 8.625 75.707031 Z M 8.625 75.707031 " clip-rule="nonzero"/></clipPath><clipPath id="662ca6cc9a"><path d="M 0.125 0.707031 L 66.476562 0.707031 L 66.476562 152.960938 L 0.125 152.960938 Z M 0.125 0.707031 " clip-rule="nonzero"/></clipPath><clipPath id="20260af3ec"><path d="M 7.625 0.707031 L 58.976562 0.707031 C 60.964844 0.707031 62.871094 1.496094 64.28125 2.902344 C 65.6875 4.3125 66.476562 6.21875 66.476562 8.207031 L 66.476562 145.4375 C 66.476562 147.425781 65.6875 149.335938 64.28125 150.742188 C 62.871094 152.148438 60.964844 152.9375 58.976562 152.9375 L 7.625 152.9375 C 5.636719 152.9375 3.726562 152.148438 2.320312 150.742188 C 0.914062 149.335938 0.125 147.425781 0.125 145.4375 L 0.125 8.207031 C 0.125 6.21875 0.914062 4.3125 2.320312 2.902344 C 3.726562 1.496094 5.636719 0.707031 7.625 0.707031 Z M 7.625 0.707031 " clip-rule="nonzero"/></clipPath><clipPath id="3fe9cc6d82"><rect x="0" width="67" y="0" height="153"/></clipPath><clipPath id="56f375759e"><path d="M 77.851562 119.765625 L 149.804688 119.765625 L 149.804688 227.988281 L 77.851562 227.988281 Z M 77.851562 119.765625 " clip-rule="nonzero"/></clipPath><clipPath id="c2f55c3c6c"><path d="M 116.210938 121.523438 L 149.5 220.828125 C 150.054688 222.472656 149.777344 224.285156 148.765625 225.691406 C 147.75 227.101562 146.121094 227.9375 144.386719 227.9375 L 83.269531 227.9375 C 81.535156 227.9375 79.902344 227.101562 78.890625 225.691406 C 77.875 224.285156 77.601562 222.472656 78.152344 220.828125 L 111.445312 121.523438 C 111.785156 120.5 112.746094 119.808594 113.828125 119.808594 C 114.90625 119.808594 115.867188 120.5 116.210938 121.523438 Z M 116.210938 121.523438 " clip-rule="nonzero"/></clipPath><clipPath id="8f4ed9cfae"><path d="M 0.851562 0.765625 L 72.804688 0.765625 L 72.804688 108.960938 L 0.851562 108.960938 Z M 0.851562 0.765625 " clip-rule="nonzero"/></clipPath><clipPath id="4bc2c9ed50"><path d="M 39.210938 2.523438 L 72.5 101.828125 C 73.054688 103.472656 72.777344 105.285156 71.765625 106.691406 C 70.75 108.101562 69.121094 108.9375 67.386719 108.9375 L 6.269531 108.9375 C 4.535156 108.9375 2.902344 108.101562 1.890625 106.691406 C 0.875 105.285156 0.601562 103.472656 1.152344 101.828125 L 34.445312 2.523438 C 34.785156 1.5 35.746094 0.808594 36.828125 0.808594 C 37.90625 0.808594 38.867188 1.5 39.210938 2.523438 Z M 39.210938 2.523438 " clip-rule="nonzero"/></clipPath><clipPath id="3389ad2945"><rect x="0" width="73" y="0" height="109"/></clipPath><clipPath id="964bd52b2c"><path d="M 153.964844 119.765625 L 225.917969 119.765625 L 225.917969 227.988281 L 153.964844 227.988281 Z M 153.964844 119.765625 " clip-rule="nonzero"/></clipPath><clipPath id="e1008f1288"><path d="M 192.328125 121.523438 L 225.617188 220.828125 C 226.167969 222.472656 225.894531 224.285156 224.878906 225.691406 C 223.867188 227.101562 222.234375 227.9375 220.5 227.9375 L 159.386719 227.9375 C 157.648438 227.9375 156.019531 227.101562 155.003906 225.691406 C 153.992188 224.285156 153.71875 222.472656 154.269531 220.828125 L 187.558594 121.523438 C 187.902344 120.5 188.863281 119.808594 189.941406 119.808594 C 191.023438 119.808594 191.984375 120.5 192.328125 121.523438 Z M 192.328125 121.523438 " clip-rule="nonzero"/></clipPath><clipPath id="cc4b0478c8"><path d="M 0.964844 0.765625 L 72.917969 0.765625 L 72.917969 108.960938 L 0.964844 108.960938 Z M 0.964844 0.765625 " clip-rule="nonzero"/></clipPath><clipPath id="155f69d94f"><path d="M 39.328125 2.523438 L 72.617188 101.828125 C 73.167969 103.472656 72.894531 105.285156 71.878906 106.691406 C 70.867188 108.101562 69.234375 108.9375 67.5 108.9375 L 6.386719 108.9375 C 4.648438 108.9375 3.019531 108.101562 2.003906 106.691406 C 0.992188 105.285156 0.71875 103.472656 1.269531 101.828125 L 34.558594 2.523438 C 34.902344 1.5 35.863281 0.808594 36.941406 0.808594 C 38.023438 0.808594 38.984375 1.5 39.328125 2.523438 Z M 39.328125 2.523438 " clip-rule="nonzero"/></clipPath><clipPath id="482c65a055"><rect x="0" width="73" y="0" height="109"/></clipPath><clipPath id="e069a4793e"><path d="M 114.867188 92.296875 L 188.902344 92.296875 L 188.902344 211.449219 L 114.867188 211.449219 Z M 114.867188 92.296875 " clip-rule="nonzero"/></clipPath><clipPath id="55b9581662"><path d="M 151.886719 211.351562 L 188.902344 92.296875 L 114.867188 92.296875 Z M 151.886719 211.351562 " clip-rule="nonzero"/></clipPath><clipPath id="de5f945347"><path d="M 0.867188 0.296875 L 74.902344 0.296875 L 74.902344 119.398438 L 0.867188 119.398438 Z M 0.867188 0.296875 " clip-rule="nonzero"/></clipPath><clipPath id="748d67ea11"><path d="M 37.886719 119.351562 L 74.902344 0.296875 L 0.867188 0.296875 Z M 37.886719 119.351562 " clip-rule="nonzero"/></clipPath><clipPath id="c2eccd322e"><rect x="0" width="75" y="0" height="120"/></clipPath><clipPath id="3d23660c7e"><path d="M 114.867188 92.296875 L 188.957031 92.296875 L 188.957031 211.15625 L 114.867188 211.15625 Z M 114.867188 92.296875 " clip-rule="nonzero"/></clipPath><clipPath id="b62d70de46"><path d="M 151.882812 211.347656 L 188.902344 92.296875 L 114.867188 92.296875 Z M 151.882812 211.347656 " clip-rule="nonzero"/></clipPath><clipPath id="24a96ec8e8"><rect x="0" width="229" y="0" height="229"/></clipPath></defs><rect x="-90" width="1080" fill="#ffffff" y="-47.099999" height="565.199986" fill-opacity="1"/><rect x="-90" width="1080" fill="#ffffff" y="-47.099999" height="565.199986" fill-opacity="1"/><g transform="matrix(1, 0, 0, 1, 67, 121)"><g clip-path="url(#24a96ec8e8)"><g clip-path="url(#8ed1f9a760)"><g clip-path="url(#03ecb5766b)"><g transform="matrix(1, 0, 0, 1, 1, 1)"><g clip-path="url(#09e08afc6a)"><g clip-path="url(#29f7bb2b69)"><g clip-path="url(#96add907d9)"><path fill="#ff6666" d="M 0.125 0.0625 L 66.476562 0.0625 L 66.476562 66.414062 L 0.125 66.414062 Z M 0.125 0.0625 " fill-opacity="1" fill-rule="nonzero"/></g></g></g></g></g></g><g clip-path="url(#ece22348ed)"><g clip-path="url(#6a3204ef3e)"><g transform="matrix(1, 0, 0, 1, 75, 1)"><g clip-path="url(#17cd573061)"><g clip-path="url(#57f668d6b8)"><g clip-path="url(#ad8c48d027)"><path fill="#666666" d="M 0.769531 0.0625 L 152.910156 0.0625 L 152.910156 66.414062 L 0.769531 66.414062 Z M 0.769531 0.0625 " fill-opacity="1" fill-rule="nonzero"/></g></g></g></g></g></g><g clip-path="url(#94f52fec6e)"><g clip-path="url(#75bd7a8c6c)"><g transform="matrix(1, 0, 0, 1, 1, 75)"><g clip-path="url(#3fe9cc6d82)"><g clip-path="url(#662ca6cc9a)"><g clip-path="url(#20260af3ec)"><path fill="#666666" d="M 0.125 0.707031 L 66.476562 0.707031 L 66.476562 152.847656 L 0.125 152.847656 Z M 0.125 0.707031 " fill-opacity="1" fill-rule="nonzero"/></g></g></g></g></g></g><g clip-path="url(#56f375759e)"><g clip-path="url(#c2f55c3c6c)"><g transform="matrix(1, 0, 0, 1, 77, 119)"><g clip-path="url(#3389ad2945)"><g clip-path="url(#8f4ed9cfae)"><g clip-path="url(#4bc2c9ed50)"><path fill="#ff6666" d="M -1.230469 -4.585938 L 74.886719 -4.585938 L 74.886719 108.988281 L -1.230469 108.988281 Z M -1.230469 -4.585938 " fill-opacity="1" fill-rule="nonzero"/></g></g></g></g></g></g><g clip-path="url(#964bd52b2c)"><g clip-path="url(#e1008f1288)"><g transform="matrix(1, 0, 0, 1, 153, 119)"><g clip-path="url(#482c65a055)"><g clip-path="url(#cc4b0478c8)"><g clip-path="url(#155f69d94f)"><path fill="#ff6666" d="M -1.113281 -4.585938 L 75 -4.585938 L 75 108.988281 L -1.113281 108.988281 Z M -1.113281 -4.585938 " fill-opacity="1" fill-rule="nonzero"/></g></g></g></g></g></g><g clip-path="url(#e069a4793e)"><g clip-path="url(#55b9581662)"><g transform="matrix(1, 0, 0, 1, 114, 92)"><g clip-path="url(#c2eccd322e)"><g clip-path="url(#de5f945347)"><g clip-path="url(#748d67ea11)"><path fill="#ffffff" d="M 0.867188 0.296875 L 74.902344 0.296875 L 74.902344 119.449219 L 0.867188 119.449219 Z M 0.867188 0.296875 " fill-opacity="1" fill-rule="nonzero"/></g></g></g></g></g></g><g clip-path="url(#3d23660c7e)"><g clip-path="url(#b62d70de46)"><path stroke-linecap="butt" transform="matrix(0.396205, 0, 0, 0.396205, 114.865961, 92.297526)" fill="none" stroke-linejoin="miter" d="M 93.428562 300.476189 L 186.863888 -0.00164228 L 0.00309599 -0.00164228 Z M 93.428562 300.476189 " stroke="#000000" stroke-width="7.57184" stroke-opacity="1" stroke-miterlimit="4"/></g></g></g></g><g fill="#000000" fill-opacity="1"><g transform="translate(332.054697, 235.06251)"><g><path d="M 27.734375 -43.46875 L 33.46875 -43.46875 C 38.820312 -43.46875 42.828125 -44.523438 45.484375 -46.640625 C 48.140625 -48.753906 49.46875 -51.832031 49.46875 -55.875 C 49.46875 -59.957031 48.351562 -62.96875 46.125 -64.90625 C 43.894531 -66.851562 40.40625 -67.828125 35.65625 -67.828125 L 27.734375 -67.828125 Z M 67.046875 -56.484375 C 67.046875 -47.648438 64.285156 -40.894531 58.765625 -36.21875 C 53.242188 -31.539062 45.390625 -29.203125 35.203125 -29.203125 L 27.734375 -29.203125 L 27.734375 0 L 10.328125 0 L 10.328125 -82.09375 L 36.5625 -82.09375 C 46.507812 -82.09375 54.078125 -79.945312 59.265625 -75.65625 C 64.453125 -71.375 67.046875 -64.984375 67.046875 -56.484375 Z M 67.046875 -56.484375 "/></g></g></g><g fill="#000000" fill-opacity="1"><g transform="translate(404.264153, 235.06251)"><g><path d="M 8.25 -79 C 8.25 -84.582031 11.359375 -87.375 17.578125 -87.375 C 23.785156 -87.375 26.890625 -84.582031 26.890625 -79 C 26.890625 -76.34375 26.113281 -74.273438 24.5625 -72.796875 C 23.007812 -71.316406 20.679688 -70.578125 17.578125 -70.578125 C 11.359375 -70.578125 8.25 -73.382812 8.25 -79 Z M 26.109375 0 L 8.984375 0 L 8.984375 -62.78125 L 26.109375 -62.78125 Z M 26.109375 0 "/></g></g></g><g fill="#000000" fill-opacity="1"><g transform="translate(439.358179, 235.06251)"><g><path d="M 34.484375 1.125 C 14.941406 1.125 5.171875 -9.597656 5.171875 -31.046875 C 5.171875 -41.722656 7.828125 -49.875 13.140625 -55.5 C 18.453125 -61.132812 26.070312 -63.953125 36 -63.953125 C 43.257812 -63.953125 49.769531 -62.53125 55.53125 -59.6875 L 50.484375 -46.4375 C 47.785156 -47.519531 45.273438 -48.40625 42.953125 -49.09375 C 40.628906 -49.789062 38.3125 -50.140625 36 -50.140625 C 27.082031 -50.140625 22.625 -43.816406 22.625 -31.171875 C 22.625 -18.890625 27.082031 -12.75 36 -12.75 C 39.289062 -12.75 42.335938 -13.1875 45.140625 -14.0625 C 47.953125 -14.945312 50.757812 -16.320312 53.5625 -18.1875 L 53.5625 -3.53125 C 50.800781 -1.78125 48.003906 -0.566406 45.171875 0.109375 C 42.347656 0.785156 38.785156 1.125 34.484375 1.125 Z M 34.484375 1.125 "/></g></g></g><g fill="#000000" fill-opacity="1"><g transform="translate(498.48459, 235.06251)"><g><path d="M 35.4375 -12.515625 C 38.425781 -12.515625 42.019531 -13.171875 46.21875 -14.484375 L 46.21875 -1.734375 C 41.945312 0.171875 36.703125 1.125 30.484375 1.125 C 23.640625 1.125 18.65625 -0.601562 15.53125 -4.0625 C 12.40625 -7.53125 10.84375 -12.726562 10.84375 -19.65625 L 10.84375 -49.921875 L 2.640625 -49.921875 L 2.640625 -57.15625 L 12.078125 -62.890625 L 17.015625 -76.140625 L 27.96875 -76.140625 L 27.96875 -62.78125 L 45.546875 -62.78125 L 45.546875 -49.921875 L 27.96875 -49.921875 L 27.96875 -19.65625 C 27.96875 -17.21875 28.648438 -15.414062 30.015625 -14.25 C 31.378906 -13.09375 33.1875 -12.515625 35.4375 -12.515625 Z M 35.4375 -12.515625 "/></g></g></g><g fill="#000000" fill-opacity="1"><g transform="translate(548.402331, 235.06251)"><g><path d="M 45.09375 0 L 25.328125 -64.40625 L 24.8125 -64.40625 C 25.53125 -51.300781 25.890625 -42.5625 25.890625 -38.1875 L 25.890625 0 L 10.328125 0 L 10.328125 -82.09375 L 34.03125 -82.09375 L 53.453125 -19.3125 L 53.796875 -19.3125 L 74.40625 -82.09375 L 98.09375 -82.09375 L 98.09375 0 L 81.875 0 L 81.875 -38.859375 C 81.875 -40.691406 81.898438 -42.804688 81.953125 -45.203125 C 82.003906 -47.597656 82.257812 -53.960938 82.71875 -64.296875 L 82.203125 -64.296875 L 61.03125 0 Z M 45.09375 0 "/></g></g></g><g fill="#000000" fill-opacity="1"><g transform="translate(656.828823, 235.06251)"><g><path d="M 45.203125 -68.78125 C 38.648438 -68.78125 33.578125 -66.316406 29.984375 -61.390625 C 26.390625 -56.472656 24.59375 -49.617188 24.59375 -40.828125 C 24.59375 -22.515625 31.460938 -13.359375 45.203125 -13.359375 C 50.960938 -13.359375 57.941406 -14.800781 66.140625 -17.6875 L 66.140625 -3.09375 C 59.410156 -0.28125 51.890625 1.125 43.578125 1.125 C 31.628906 1.125 22.492188 -2.492188 16.171875 -9.734375 C 9.847656 -16.984375 6.6875 -27.382812 6.6875 -40.9375 C 6.6875 -49.46875 8.238281 -56.941406 11.34375 -63.359375 C 14.445312 -69.785156 18.910156 -74.710938 24.734375 -78.140625 C 30.554688 -81.566406 37.378906 -83.28125 45.203125 -83.28125 C 53.171875 -83.28125 61.179688 -81.347656 69.234375 -77.484375 L 63.625 -63.34375 C 60.550781 -64.800781 57.457031 -66.070312 54.34375 -67.15625 C 51.238281 -68.238281 48.191406 -68.78125 45.203125 -68.78125 Z M 45.203125 -68.78125 "/></g></g></g><g fill="#000000" fill-opacity="1"><g transform="translate(730.105132, 235.06251)"><g><path d="M 27.734375 -43.46875 L 33.46875 -43.46875 C 38.820312 -43.46875 42.828125 -44.523438 45.484375 -46.640625 C 48.140625 -48.753906 49.46875 -51.832031 49.46875 -55.875 C 49.46875 -59.957031 48.351562 -62.96875 46.125 -64.90625 C 43.894531 -66.851562 40.40625 -67.828125 35.65625 -67.828125 L 27.734375 -67.828125 Z M 67.046875 -56.484375 C 67.046875 -47.648438 64.285156 -40.894531 58.765625 -36.21875 C 53.242188 -31.539062 45.390625 -29.203125 35.203125 -29.203125 L 27.734375 -29.203125 L 27.734375 0 L 10.328125 0 L 10.328125 -82.09375 L 36.5625 -82.09375 C 46.507812 -82.09375 54.078125 -79.945312 59.265625 -75.65625 C 64.453125 -71.375 67.046875 -64.984375 67.046875 -56.484375 Z M 67.046875 -56.484375 "/></g></g></g><g fill="#000000" fill-opacity="1"><g transform="translate(395.035121, 289.699989)"><g><path d="M 15.515625 -14.109375 C 15.515625 -12.066406 14.816406 -10.5 13.421875 -9.40625 C 12.023438 -8.320312 10.0625 -7.78125 7.53125 -7.78125 L 5.234375 -7.78125 L 5.234375 0 L 2.71875 0 L 2.71875 -19.984375 L 8.015625 -19.984375 C 13.015625 -19.984375 15.515625 -18.023438 15.515625 -14.109375 Z M 5.234375 -9.9375 L 7.25 -9.9375 C 9.238281 -9.9375 10.675781 -10.257812 11.5625 -10.90625 C 12.457031 -11.550781 12.90625 -12.582031 12.90625 -14 C 12.90625 -15.28125 12.488281 -16.238281 11.65625 -16.875 C 10.832031 -17.519531 9.539062 -17.84375 7.78125 -17.84375 L 5.234375 -17.84375 Z M 5.234375 -9.9375 "/></g></g></g><g fill="#000000" fill-opacity="1"><g transform="translate(411.972216, 289.699989)"><g><path d="M 11.65625 0 L 11.171875 -2.140625 L 11.0625 -2.140625 C 10.3125 -1.191406 9.566406 -0.550781 8.828125 -0.21875 C 8.085938 0.113281 7.148438 0.28125 6.015625 0.28125 C 4.535156 0.28125 3.375 -0.101562 2.53125 -0.875 C 1.695312 -1.65625 1.28125 -2.753906 1.28125 -4.171875 C 1.28125 -7.210938 3.679688 -8.804688 8.484375 -8.953125 L 11.03125 -9.046875 L 11.03125 -9.9375 C 11.03125 -11.082031 10.785156 -11.925781 10.296875 -12.46875 C 9.804688 -13.007812 9.019531 -13.28125 7.9375 -13.28125 C 7.132812 -13.28125 6.378906 -13.160156 5.671875 -12.921875 C 4.972656 -12.679688 4.3125 -12.414062 3.6875 -12.125 L 2.9375 -13.96875 C 3.695312 -14.375 4.519531 -14.691406 5.40625 -14.921875 C 6.300781 -15.148438 7.1875 -15.265625 8.0625 -15.265625 C 9.875 -15.265625 11.222656 -14.863281 12.109375 -14.0625 C 12.992188 -13.257812 13.4375 -11.984375 13.4375 -10.234375 L 13.4375 0 Z M 6.578125 -1.703125 C 7.953125 -1.703125 9.03125 -2.070312 9.8125 -2.8125 C 10.601562 -3.5625 11 -4.617188 11 -5.984375 L 11 -7.34375 L 8.796875 -7.25 C 7.066406 -7.1875 5.804688 -6.910156 5.015625 -6.421875 C 4.234375 -5.941406 3.84375 -5.179688 3.84375 -4.140625 C 3.84375 -3.359375 4.082031 -2.753906 4.5625 -2.328125 C 5.039062 -1.910156 5.710938 -1.703125 6.578125 -1.703125 Z M 6.578125 -1.703125 "/></g></g></g><g fill="#000000" fill-opacity="1"><g transform="translate(427.679013, 289.699989)"><g><path d="M 4.84375 0 L 2.375 0 L 2.375 -15.015625 L 4.84375 -15.015625 Z M 2.1875 -19.078125 C 2.1875 -19.617188 2.320312 -20.007812 2.59375 -20.25 C 2.875 -20.5 3.222656 -20.625 3.640625 -20.625 C 4.023438 -20.625 4.359375 -20.5 4.640625 -20.25 C 4.929688 -20.007812 5.078125 -19.617188 5.078125 -19.078125 C 5.078125 -18.535156 4.929688 -18.132812 4.640625 -17.875 C 4.359375 -17.625 4.023438 -17.5 3.640625 -17.5 C 3.222656 -17.5 2.875 -17.625 2.59375 -17.875 C 2.320312 -18.132812 2.1875 -18.535156 2.1875 -19.078125 Z M 2.1875 -19.078125 "/></g></g></g><g fill="#000000" fill-opacity="1"><g transform="translate(434.896755, 289.699989)"><g><path d="M 9.375 -15.28125 C 10.039062 -15.28125 10.628906 -15.226562 11.140625 -15.125 L 10.84375 -12.859375 C 10.289062 -12.984375 9.75 -13.046875 9.21875 -13.046875 C 8.425781 -13.046875 7.6875 -12.828125 7 -12.390625 C 6.320312 -11.953125 5.789062 -11.347656 5.40625 -10.578125 C 5.03125 -9.804688 4.84375 -8.953125 4.84375 -8.015625 L 4.84375 0 L 2.375 0 L 2.375 -15.015625 L 4.40625 -15.015625 L 4.671875 -12.265625 L 4.78125 -12.265625 C 5.351562 -13.253906 6.03125 -14.003906 6.8125 -14.515625 C 7.601562 -15.023438 8.457031 -15.28125 9.375 -15.28125 Z M 9.375 -15.28125 "/></g></g></g><g fill="#000000" fill-opacity="1"><g transform="translate(446.461547, 289.699989)"><g><path d="M 14.640625 0 L 12.078125 -8.453125 C 11.835938 -9.148438 11.488281 -10.472656 11.03125 -12.421875 L 10.921875 -12.421875 C 10.535156 -10.648438 10.195312 -9.316406 9.90625 -8.421875 L 7.21875 0 L 4.4375 0 L 0.3125 -15.015625 L 2.859375 -15.015625 C 3.804688 -11.316406 4.523438 -8.503906 5.015625 -6.578125 C 5.515625 -4.660156 5.8125 -3.304688 5.90625 -2.515625 L 6.015625 -2.515625 L 6.203125 -3.359375 C 6.484375 -4.660156 6.757812 -5.722656 7.03125 -6.546875 L 9.6875 -15.015625 L 12.375 -15.015625 L 14.953125 -6.546875 C 15.046875 -6.234375 15.144531 -5.894531 15.25 -5.53125 C 15.351562 -5.164062 15.453125 -4.804688 15.546875 -4.453125 C 15.640625 -4.109375 15.722656 -3.769531 15.796875 -3.4375 C 15.867188 -3.101562 15.921875 -2.804688 15.953125 -2.546875 L 16.078125 -2.546875 C 16.160156 -3.234375 16.492188 -4.71875 17.078125 -7 L 19.1875 -15.015625 L 21.703125 -15.015625 L 17.53125 0 Z M 14.640625 0 "/></g></g></g><g fill="#000000" fill-opacity="1"><g transform="translate(468.470194, 289.699989)"><g><path d="M 4.84375 0 L 2.375 0 L 2.375 -15.015625 L 4.84375 -15.015625 Z M 2.1875 -19.078125 C 2.1875 -19.617188 2.320312 -20.007812 2.59375 -20.25 C 2.875 -20.5 3.222656 -20.625 3.640625 -20.625 C 4.023438 -20.625 4.359375 -20.5 4.640625 -20.25 C 4.929688 -20.007812 5.078125 -19.617188 5.078125 -19.078125 C 5.078125 -18.535156 4.929688 -18.132812 4.640625 -17.875 C 4.359375 -17.625 4.023438 -17.5 3.640625 -17.5 C 3.222656 -17.5 2.875 -17.625 2.59375 -17.875 C 2.320312 -18.132812 2.1875 -18.535156 2.1875 -19.078125 Z M 2.1875 -19.078125 "/></g></g></g><g fill="#000000" fill-opacity="1"><g transform="translate(475.687936, 289.699989)"><g><path d="M 12.15625 -4.140625 C 12.15625 -2.734375 11.628906 -1.644531 10.578125 -0.875 C 9.535156 -0.101562 8.066406 0.28125 6.171875 0.28125 C 4.191406 0.28125 2.617188 -0.0351562 1.453125 -0.671875 L 1.453125 -2.90625 C 3.097656 -2.101562 4.6875 -1.703125 6.21875 -1.703125 C 7.457031 -1.703125 8.359375 -1.898438 8.921875 -2.296875 C 9.492188 -2.703125 9.78125 -3.242188 9.78125 -3.921875 C 9.78125 -4.515625 9.507812 -5.015625 8.96875 -5.421875 C 8.425781 -5.835938 7.460938 -6.3125 6.078125 -6.84375 C 4.660156 -7.382812 3.664062 -7.847656 3.09375 -8.234375 C 2.519531 -8.617188 2.097656 -9.050781 1.828125 -9.53125 C 1.554688 -10.019531 1.421875 -10.613281 1.421875 -11.3125 C 1.421875 -12.539062 1.921875 -13.507812 2.921875 -14.21875 C 3.929688 -14.925781 5.3125 -15.28125 7.0625 -15.28125 C 8.757812 -15.28125 10.351562 -14.945312 11.84375 -14.28125 L 11 -12.3125 C 9.476562 -12.957031 8.109375 -13.28125 6.890625 -13.28125 C 5.867188 -13.28125 5.09375 -13.117188 4.5625 -12.796875 C 4.039062 -12.472656 3.78125 -12.023438 3.78125 -11.453125 C 3.78125 -10.910156 4.003906 -10.457031 4.453125 -10.09375 C 4.910156 -9.738281 5.972656 -9.238281 7.640625 -8.59375 C 8.890625 -8.132812 9.8125 -7.703125 10.40625 -7.296875 C 11.007812 -6.898438 11.453125 -6.453125 11.734375 -5.953125 C 12.015625 -5.453125 12.15625 -4.847656 12.15625 -4.140625 Z M 12.15625 -4.140625 "/></g></g></g><g fill="#000000" fill-opacity="1"><g transform="translate(489.098179, 289.699989)"><g><path d="M 8.765625 0.28125 C 6.515625 0.28125 4.75 -0.398438 3.46875 -1.765625 C 2.1875 -3.128906 1.546875 -5.003906 1.546875 -7.390625 C 1.546875 -9.796875 2.140625 -11.710938 3.328125 -13.140625 C 4.523438 -14.566406 6.140625 -15.28125 8.171875 -15.28125 C 10.054688 -15.28125 11.5625 -14.671875 12.6875 -13.453125 C 13.8125 -12.242188 14.375 -10.597656 14.375 -8.515625 L 14.375 -7.03125 L 4.09375 -7.03125 C 4.132812 -5.320312 4.566406 -4.023438 5.390625 -3.140625 C 6.210938 -2.253906 7.375 -1.8125 8.875 -1.8125 C 9.675781 -1.8125 10.4375 -1.882812 11.15625 -2.03125 C 11.875 -2.175781 12.71875 -2.453125 13.6875 -2.859375 L 13.6875 -0.703125 C 12.851562 -0.347656 12.070312 -0.0976562 11.34375 0.046875 C 10.613281 0.203125 9.753906 0.28125 8.765625 0.28125 Z M 8.15625 -13.28125 C 6.976562 -13.28125 6.046875 -12.898438 5.359375 -12.140625 C 4.671875 -11.378906 4.265625 -10.328125 4.140625 -8.984375 L 11.78125 -8.984375 C 11.769531 -10.390625 11.445312 -11.457031 10.8125 -12.1875 C 10.1875 -12.914062 9.300781 -13.28125 8.15625 -13.28125 Z M 8.15625 -13.28125 "/></g></g></g><g fill="#000000" fill-opacity="1"><g transform="translate(504.886996, 289.699989)"><g/></g></g><g fill="#000000" fill-opacity="1"><g transform="translate(512.159419, 289.699989)"><g><path d="M 9.046875 0 L 6.515625 0 L 6.515625 -17.78125 L 0.28125 -17.78125 L 0.28125 -19.984375 L 15.265625 -19.984375 L 15.265625 -17.78125 L 9.046875 -17.78125 Z M 9.046875 0 "/></g></g></g><g fill="#000000" fill-opacity="1"><g transform="translate(527.729517, 289.699989)"><g><path d="M 8.765625 0.28125 C 6.515625 0.28125 4.75 -0.398438 3.46875 -1.765625 C 2.1875 -3.128906 1.546875 -5.003906 1.546875 -7.390625 C 1.546875 -9.796875 2.140625 -11.710938 3.328125 -13.140625 C 4.523438 -14.566406 6.140625 -15.28125 8.171875 -15.28125 C 10.054688 -15.28125 11.5625 -14.671875 12.6875 -13.453125 C 13.8125 -12.242188 14.375 -10.597656 14.375 -8.515625 L 14.375 -7.03125 L 4.09375 -7.03125 C 4.132812 -5.320312 4.566406 -4.023438 5.390625 -3.140625 C 6.210938 -2.253906 7.375 -1.8125 8.875 -1.8125 C 9.675781 -1.8125 10.4375 -1.882812 11.15625 -2.03125 C 11.875 -2.175781 12.71875 -2.453125 13.6875 -2.859375 L 13.6875 -0.703125 C 12.851562 -0.347656 12.070312 -0.0976562 11.34375 0.046875 C 10.613281 0.203125 9.753906 0.28125 8.765625 0.28125 Z M 8.15625 -13.28125 C 6.976562 -13.28125 6.046875 -12.898438 5.359375 -12.140625 C 4.671875 -11.378906 4.265625 -10.328125 4.140625 -8.984375 L 11.78125 -8.984375 C 11.769531 -10.390625 11.445312 -11.457031 10.8125 -12.1875 C 10.1875 -12.914062 9.300781 -13.28125 8.15625 -13.28125 Z M 8.15625 -13.28125 "/></g></g></g><g fill="#000000" fill-opacity="1"><g transform="translate(543.518334, 289.699989)"><g><path d="M 12.15625 -4.140625 C 12.15625 -2.734375 11.628906 -1.644531 10.578125 -0.875 C 9.535156 -0.101562 8.066406 0.28125 6.171875 0.28125 C 4.191406 0.28125 2.617188 -0.0351562 1.453125 -0.671875 L 1.453125 -2.90625 C 3.097656 -2.101562 4.6875 -1.703125 6.21875 -1.703125 C 7.457031 -1.703125 8.359375 -1.898438 8.921875 -2.296875 C 9.492188 -2.703125 9.78125 -3.242188 9.78125 -3.921875 C 9.78125 -4.515625 9.507812 -5.015625 8.96875 -5.421875 C 8.425781 -5.835938 7.460938 -6.3125 6.078125 -6.84375 C 4.660156 -7.382812 3.664062 -7.847656 3.09375 -8.234375 C 2.519531 -8.617188 2.097656 -9.050781 1.828125 -9.53125 C 1.554688 -10.019531 1.421875 -10.613281 1.421875 -11.3125 C 1.421875 -12.539062 1.921875 -13.507812 2.921875 -14.21875 C 3.929688 -14.925781 5.3125 -15.28125 7.0625 -15.28125 C 8.757812 -15.28125 10.351562 -14.945312 11.84375 -14.28125 L 11 -12.3125 C 9.476562 -12.957031 8.109375 -13.28125 6.890625 -13.28125 C 5.867188 -13.28125 5.09375 -13.117188 4.5625 -12.796875 C 4.039062 -12.472656 3.78125 -12.023438 3.78125 -11.453125 C 3.78125 -10.910156 4.003906 -10.457031 4.453125 -10.09375 C 4.910156 -9.738281 5.972656 -9.238281 7.640625 -8.59375 C 8.890625 -8.132812 9.8125 -7.703125 10.40625 -7.296875 C 11.007812 -6.898438 11.453125 -6.453125 11.734375 -5.953125 C 12.015625 -5.453125 12.15625 -4.847656 12.15625 -4.140625 Z M 12.15625 -4.140625 "/></g></g></g><g fill="#000000" fill-opacity="1"><g transform="translate(556.928577, 289.699989)"><g><path d="M 7.390625 -1.734375 C 7.710938 -1.734375 8.085938 -1.765625 8.515625 -1.828125 C 8.941406 -1.890625 9.265625 -1.960938 9.484375 -2.046875 L 9.484375 -0.171875 C 9.253906 -0.0664062 8.898438 0.03125 8.421875 0.125 C 7.953125 0.226562 7.46875 0.28125 6.96875 0.28125 C 4.039062 0.28125 2.578125 -1.265625 2.578125 -4.359375 L 2.578125 -13.09375 L 0.453125 -13.09375 L 0.453125 -14.28125 L 2.59375 -15.265625 L 3.578125 -18.453125 L 5.046875 -18.453125 L 5.046875 -15.015625 L 9.375 -15.015625 L 9.375 -13.09375 L 5.046875 -13.09375 L 5.046875 -4.4375 C 5.046875 -3.5625 5.253906 -2.890625 5.671875 -2.421875 C 6.085938 -1.960938 6.660156 -1.734375 7.390625 -1.734375 Z M 7.390625 -1.734375 "/></g></g></g><g fill="#000000" fill-opacity="1"><g transform="translate(567.030688, 289.699989)"><g><path d="M 4.84375 0 L 2.375 0 L 2.375 -15.015625 L 4.84375 -15.015625 Z M 2.1875 -19.078125 C 2.1875 -19.617188 2.320312 -20.007812 2.59375 -20.25 C 2.875 -20.5 3.222656 -20.625 3.640625 -20.625 C 4.023438 -20.625 4.359375 -20.5 4.640625 -20.25 C 4.929688 -20.007812 5.078125 -19.617188 5.078125 -19.078125 C 5.078125 -18.535156 4.929688 -18.132812 4.640625 -17.875 C 4.359375 -17.625 4.023438 -17.5 3.640625 -17.5 C 3.222656 -17.5 2.875 -17.625 2.59375 -17.875 C 2.320312 -18.132812 2.1875 -18.535156 2.1875 -19.078125 Z M 2.1875 -19.078125 "/></g></g></g><g fill="#000000" fill-opacity="1"><g transform="translate(574.248431, 289.699989)"><g><path d="M 12.609375 0 L 12.609375 -9.59375 C 12.609375 -10.820312 12.335938 -11.734375 11.796875 -12.328125 C 11.253906 -12.921875 10.40625 -13.21875 9.25 -13.21875 C 7.707031 -13.21875 6.585938 -12.789062 5.890625 -11.9375 C 5.191406 -11.09375 4.84375 -9.707031 4.84375 -7.78125 L 4.84375 0 L 2.375 0 L 2.375 -15.015625 L 4.359375 -15.015625 L 4.734375 -12.96875 L 4.875 -12.96875 C 5.332031 -13.695312 5.976562 -14.265625 6.8125 -14.671875 C 7.65625 -15.078125 8.582031 -15.28125 9.59375 -15.28125 C 11.4375 -15.28125 12.804688 -14.832031 13.703125 -13.9375 C 14.597656 -13.050781 15.046875 -11.664062 15.046875 -9.78125 L 15.046875 0 Z M 12.609375 0 "/></g></g></g><g fill="#000000" fill-opacity="1"><g transform="translate(591.554608, 289.699989)"><g><path d="M 8.09375 -1.734375 C 9.601562 -1.734375 10.703125 -2.140625 11.390625 -2.953125 C 12.078125 -3.773438 12.421875 -5.085938 12.421875 -6.890625 L 12.421875 -7.484375 C 12.421875 -9.484375 12.070312 -10.9375 11.375 -11.84375 C 10.6875 -12.757812 9.578125 -13.21875 8.046875 -13.21875 C 6.785156 -13.21875 5.8125 -12.71875 5.125 -11.71875 C 4.4375 -10.726562 4.09375 -9.304688 4.09375 -7.453125 C 4.09375 -5.585938 4.425781 -4.164062 5.09375 -3.1875 C 5.757812 -2.21875 6.757812 -1.734375 8.09375 -1.734375 Z M 12.40625 -0.140625 L 12.484375 -1.984375 L 12.375 -1.984375 C 11.363281 -0.472656 9.8125 0.28125 7.71875 0.28125 C 5.78125 0.28125 4.265625 -0.394531 3.171875 -1.75 C 2.085938 -3.101562 1.546875 -5.015625 1.546875 -7.484375 C 1.546875 -9.898438 2.09375 -11.800781 3.1875 -13.1875 C 4.289062 -14.582031 5.796875 -15.28125 7.703125 -15.28125 C 9.734375 -15.28125 11.300781 -14.523438 12.40625 -13.015625 L 12.546875 -13.015625 L 12.875 -15.015625 L 14.828125 -15.015625 L 14.828125 0.25 C 14.828125 2.394531 14.28125 4.007812 13.1875 5.09375 C 12.101562 6.1875 10.414062 6.734375 8.125 6.734375 C 5.9375 6.734375 4.132812 6.410156 2.71875 5.765625 L 2.71875 3.5 C 4.175781 4.28125 6.023438 4.671875 8.265625 4.671875 C 9.535156 4.671875 10.539062 4.296875 11.28125 3.546875 C 12.03125 2.804688 12.40625 1.773438 12.40625 0.453125 Z M 12.40625 -0.140625 "/></g></g></g><g fill="#000000" fill-opacity="1"><g transform="translate(608.778766, 289.699989)"><g/></g></g><g fill="#000000" fill-opacity="1"><g transform="translate(616.051189, 289.699989)"><g><path d="M 9.296875 -13.09375 L 5.515625 -13.09375 L 5.515625 0 L 3.046875 0 L 3.046875 -13.09375 L 0.421875 -13.09375 L 0.421875 -14.25 L 3.046875 -15.09375 L 3.046875 -15.953125 C 3.046875 -17.773438 3.441406 -19.140625 4.234375 -20.046875 C 5.035156 -20.960938 6.269531 -21.421875 7.9375 -21.421875 C 8.882812 -21.421875 9.851562 -21.253906 10.84375 -20.921875 L 10.1875 -18.984375 C 9.34375 -19.265625 8.597656 -19.40625 7.953125 -19.40625 C 7.128906 -19.40625 6.515625 -19.128906 6.109375 -18.578125 C 5.710938 -18.035156 5.515625 -17.171875 5.515625 -15.984375 L 5.515625 -15.015625 L 9.296875 -15.015625 Z M 9.296875 -13.09375 "/></g></g></g><g fill="#000000" fill-opacity="1"><g transform="translate(625.688533, 289.699989)"><g><path d="M 15.421875 -7.53125 C 15.421875 -5.082031 14.800781 -3.164062 13.5625 -1.78125 C 12.320312 -0.40625 10.609375 0.28125 8.421875 0.28125 C 7.066406 0.28125 5.863281 -0.0351562 4.8125 -0.671875 C 3.757812 -1.304688 2.953125 -2.21875 2.390625 -3.40625 C 1.828125 -4.59375 1.546875 -5.96875 1.546875 -7.53125 C 1.546875 -9.976562 2.15625 -11.878906 3.375 -13.234375 C 4.59375 -14.597656 6.304688 -15.28125 8.515625 -15.28125 C 10.628906 -15.28125 12.304688 -14.582031 13.546875 -13.1875 C 14.796875 -11.800781 15.421875 -9.914062 15.421875 -7.53125 Z M 4.09375 -7.53125 C 4.09375 -5.644531 4.460938 -4.210938 5.203125 -3.234375 C 5.941406 -2.253906 7.035156 -1.765625 8.484375 -1.765625 C 9.921875 -1.765625 11.007812 -2.253906 11.75 -3.234375 C 12.5 -4.210938 12.875 -5.644531 12.875 -7.53125 C 12.875 -9.414062 12.5 -10.832031 11.75 -11.78125 C 11 -12.738281 9.898438 -13.21875 8.453125 -13.21875 C 5.546875 -13.21875 4.09375 -11.320312 4.09375 -7.53125 Z M 4.09375 -7.53125 "/></g></g></g><g fill="#000000" fill-opacity="1"><g transform="translate(642.625604, 289.699989)"><g><path d="M 9.375 -15.28125 C 10.039062 -15.28125 10.628906 -15.226562 11.140625 -15.125 L 10.84375 -12.859375 C 10.289062 -12.984375 9.75 -13.046875 9.21875 -13.046875 C 8.425781 -13.046875 7.6875 -12.828125 7 -12.390625 C 6.320312 -11.953125 5.789062 -11.347656 5.40625 -10.578125 C 5.03125 -9.804688 4.84375 -8.953125 4.84375 -8.015625 L 4.84375 0 L 2.375 0 L 2.375 -15.015625 L 4.40625 -15.015625 L 4.671875 -12.265625 L 4.78125 -12.265625 C 5.351562 -13.253906 6.03125 -14.003906 6.8125 -14.515625 C 7.601562 -15.023438 8.457031 -15.28125 9.375 -15.28125 Z M 9.375 -15.28125 "/></g></g></g><g fill="#000000" fill-opacity="1"><g transform="translate(654.190408, 289.699989)"><g/></g></g><g fill="#000000" fill-opacity="1"><g transform="translate(661.46283, 289.699989)"><g><path d="M 7.390625 -1.734375 C 7.710938 -1.734375 8.085938 -1.765625 8.515625 -1.828125 C 8.941406 -1.890625 9.265625 -1.960938 9.484375 -2.046875 L 9.484375 -0.171875 C 9.253906 -0.0664062 8.898438 0.03125 8.421875 0.125 C 7.953125 0.226562 7.46875 0.28125 6.96875 0.28125 C 4.039062 0.28125 2.578125 -1.265625 2.578125 -4.359375 L 2.578125 -13.09375 L 0.453125 -13.09375 L 0.453125 -14.28125 L 2.59375 -15.265625 L 3.578125 -18.453125 L 5.046875 -18.453125 L 5.046875 -15.015625 L 9.375 -15.015625 L 9.375 -13.09375 L 5.046875 -13.09375 L 5.046875 -4.4375 C 5.046875 -3.5625 5.253906 -2.890625 5.671875 -2.421875 C 6.085938 -1.960938 6.660156 -1.734375 7.390625 -1.734375 Z M 7.390625 -1.734375 "/></g></g></g><g fill="#000000" fill-opacity="1"><g transform="translate(671.564941, 289.699989)"><g><path d="M 12.609375 0 L 12.609375 -9.59375 C 12.609375 -10.820312 12.335938 -11.734375 11.796875 -12.328125 C 11.253906 -12.921875 10.40625 -13.21875 9.25 -13.21875 C 7.71875 -13.21875 6.597656 -12.789062 5.890625 -11.9375 C 5.191406 -11.09375 4.84375 -9.695312 4.84375 -7.75 L 4.84375 0 L 2.375 0 L 2.375 -21.28125 L 4.84375 -21.28125 L 4.84375 -15.046875 C 4.84375 -14.222656 4.796875 -13.519531 4.703125 -12.9375 L 4.875 -12.9375 C 5.3125 -13.664062 5.941406 -14.234375 6.765625 -14.640625 C 7.585938 -15.054688 8.515625 -15.265625 9.546875 -15.265625 C 11.367188 -15.265625 12.738281 -14.828125 13.65625 -13.953125 C 14.582031 -13.078125 15.046875 -11.6875 15.046875 -9.78125 L 15.046875 0 Z M 12.609375 0 "/></g></g></g><g fill="#000000" fill-opacity="1"><g transform="translate(688.871131, 289.699989)"><g><path d="M 8.765625 0.28125 C 6.515625 0.28125 4.75 -0.398438 3.46875 -1.765625 C 2.1875 -3.128906 1.546875 -5.003906 1.546875 -7.390625 C 1.546875 -9.796875 2.140625 -11.710938 3.328125 -13.140625 C 4.523438 -14.566406 6.140625 -15.28125 8.171875 -15.28125 C 10.054688 -15.28125 11.5625 -14.671875 12.6875 -13.453125 C 13.8125 -12.242188 14.375 -10.597656 14.375 -8.515625 L 14.375 -7.03125 L 4.09375 -7.03125 C 4.132812 -5.320312 4.566406 -4.023438 5.390625 -3.140625 C 6.210938 -2.253906 7.375 -1.8125 8.875 -1.8125 C 9.675781 -1.8125 10.4375 -1.882812 11.15625 -2.03125 C 11.875 -2.175781 12.71875 -2.453125 13.6875 -2.859375 L 13.6875 -0.703125 C 12.851562 -0.347656 12.070312 -0.0976562 11.34375 0.046875 C 10.613281 0.203125 9.753906 0.28125 8.765625 0.28125 Z M 8.15625 -13.28125 C 6.976562 -13.28125 6.046875 -12.898438 5.359375 -12.140625 C 4.671875 -11.378906 4.265625 -10.328125 4.140625 -8.984375 L 11.78125 -8.984375 C 11.769531 -10.390625 11.445312 -11.457031 10.8125 -12.1875 C 10.1875 -12.914062 9.300781 -13.28125 8.15625 -13.28125 Z M 8.15625 -13.28125 "/></g></g></g><g fill="#000000" fill-opacity="1"><g transform="translate(704.659948, 289.699989)"><g/></g></g><g fill="#000000" fill-opacity="1"><g transform="translate(711.932348, 289.699989)"><g><path d="M 15.265625 0 L 12.859375 -6.1875 L 4.921875 -6.1875 L 2.546875 0 L 0 0 L 7.8125 -20.078125 L 10.078125 -20.078125 L 17.875 0 Z M 12.09375 -8.421875 L 9.859375 -14.484375 L 8.90625 -17.46875 C 8.625 -16.375 8.335938 -15.378906 8.046875 -14.484375 L 5.765625 -8.421875 Z M 12.09375 -8.421875 "/></g></g></g><g fill="#000000" fill-opacity="1"><g transform="translate(729.826351, 289.699989)"><g><path d="M 8.34375 0 L 1.125 0 L 1.125 -1.453125 L 3.46875 -1.984375 L 3.46875 -17.984375 L 1.125 -18.546875 L 1.125 -19.984375 L 8.34375 -19.984375 L 8.34375 -18.546875 L 5.984375 -17.984375 L 5.984375 -1.984375 L 8.34375 -1.453125 Z M 8.34375 0 "/></g></g></g></svg>